<?xml version="1.0" encoding="UTF-8"?>
<svg width="1024" height="1024" viewBox="0 0 1024 1024" xmlns="http://www.w3.org/2000/svg">
  <defs>
    <!-- Background gradient -->
    <linearGradient id="bgGradient" x1="0%" y1="0%" x2="100%" y2="100%">
      <stop offset="0%" style="stop-color:#007AFF"/>
      <stop offset="100%" style="stop-color:#5856D6"/>
    </linearGradient>

    <!-- Card shadow -->
    <filter id="shadow" x="-20%" y="-20%" width="140%" height="140%">
      <feDropShadow dx="0" dy="8" stdDeviation="20" flood-opacity="0.3"/>
    </filter>

    <!-- Sparkle gradient -->
    <linearGradient id="sparkleGradient" x1="0%" y1="0%" x2="100%" y2="100%">
      <stop offset="0%" style="stop-color:#FFD60A"/>
      <stop offset="100%" style="stop-color:#FF9500"/>
    </linearGradient>
  </defs>

  <!-- Background -->
  <rect width="1024" height="1024" rx="224" fill="url(#bgGradient)"/>

  <!-- Back photo card -->
  <g transform="translate(512, 480) rotate(-12) translate(-512, -480)">
    <rect x="280" y="250" width="400" height="460" rx="24" fill="white" filter="url(#shadow)" opacity="0.7"/>
    <rect x="300" y="270" width="360" height="300" rx="12" fill="#E5E5EA"/>
  </g>

  <!-- Middle photo card -->
  <g transform="translate(512, 500) rotate(6) translate(-512, -500)">
    <rect x="300" y="260" width="400" height="460" rx="24" fill="white" filter="url(#shadow)" opacity="0.85"/>
    <rect x="320" y="280" width="360" height="300" rx="12" fill="#D1D1D6"/>
  </g>

  <!-- Front photo card -->
  <rect x="320" y="280" width="400" height="460" rx="24" fill="white" filter="url(#shadow)"/>
  <rect x="340" y="300" width="360" height="300" rx="12" fill="#F2F2F7"/>

  <!-- Photo placeholder icon -->
  <g transform="translate(520, 450)">
    <circle cx="0" cy="-30" r="35" fill="#C7C7CC"/>
    <ellipse cx="0" cy="50" rx="60" ry="40" fill="#C7C7CC"/>
  </g>

  <!-- Checkmark circle -->
  <circle cx="680" cy="680" r="100" fill="#34C759"/>
  <path d="M620 680 L660 720 L740 640" stroke="white" stroke-width="24" stroke-linecap="round" stroke-linejoin="round" fill="none"/>

  <!-- Sparkles -->
  <g fill="url(#sparkleGradient)">
    <!-- Top right sparkle -->
    <path d="M820 180 L835 220 L875 235 L835 250 L820 290 L805 250 L765 235 L805 220 Z"/>
    <!-- Small sparkle -->
    <path d="M750 320 L758 340 L778 348 L758 356 L750 376 L742 356 L722 348 L742 340 Z" transform="scale(0.7) translate(350, 100)"/>
  </g>
</svg>